<?xml version="1.0" encoding="utf-8"?>
<!-- Generator: Adobe Illustrator 18.0.0, SVG Export Plug-In . SVG Version: 6.00 Build 0)  -->
<!DOCTYPE svg PUBLIC "-//W3C//DTD SVG 1.1//EN" "http://www.w3.org/Graphics/SVG/1.1/DTD/svg11.dtd">
<svg version="1.1" id="Livello_1" xmlns="http://www.w3.org/2000/svg" xmlns:xlink="http://www.w3.org/1999/xlink" x="0px" y="0px"
	 viewBox="0 0 500 67" enable-background="new 0 0 500 67" xml:space="preserve">
<g>
	<path fill="#FFFFFF" d="M79.6,0c-1.8,0.2-4.4,0.8-6,1.3c-3.5,1.1-7.7,3.5-10.3,6l-1.4,1.3h21.2h21.2l-0.6-0.7
		c-1.2-1.3-4.7-3.7-6.8-4.8C92.5,0.8,89.3,0.1,84,0C81.9,0,80,0,79.6,0L79.6,0z"/>
	<path fill="#FFFFFF" d="M204.6,0c-1.8,0.2-4.4,0.8-6,1.3c-3.5,1.1-7.7,3.5-10.3,6l-1.4,1.3h21.2h21.2l-0.6-0.7
		c-1.2-1.3-4.7-3.7-6.8-4.8c-4.4-2.3-7.6-3-12.9-3.1C207,0,205,0,204.6,0L204.6,0z"/>
	<path fill="#FFFFFF" d="M251.2,0.4c-9.8,1.5-15.5,6.7-15.9,14.6l-0.1,2.1l-0.8-1.5c-0.5-0.8-1.1-2-1.5-2.5l-0.6-1h-6.9h-6.9l1,0.8
		c1.7,1.3,3.8,3.9,4.5,5.6l0.3,0.6h5.6h5.6l0.3,1.3c0.2,0.7,0.4,1.5,0.5,1.7c0.1,0.3-0.2,0.4-5.1,0.4h-5.3l0.5,1.7
		c0.3,1,0.6,2.5,0.7,3.5l0.3,1.7h5.5h5.5v-0.6c0-0.7-0.4-3.1-0.6-3.8c-0.1-0.3,0.5,0.2,1.5,1.1c3.5,3.3,6.3,4.3,22.6,8.1
		c5.2,1.2,6.9,1.7,9.3,3c2.9,1.5,5.3,3.7,6.3,6c1.5,3.3,1.5,8.6,0,11.8c-2.7,5.6-9,9-17.9,9.4c-8.4,0.4-15.4-1.8-19.3-6
		c-2.1-2.2-3.6-5.2-4.3-8.4l-0.4-1.6l0.7-2c0.4-1.1,0.8-2.2,0.9-2.6l0.1-0.6l-5.6,0.1h-5.6l-0.7,1.7c-0.7,1.8-2.1,4.5-2.5,4.7
		c-0.7,0.4,0.3,0.5,5.5,0.5h5.7l0.7,2.2c2,6.4,6.8,10.7,13.9,12.5c3.3,0.8,5.1,1.1,9.5,1c4.7,0,6.8-0.3,10.4-1.5
		c5.5-1.8,9.8-5.7,11.2-10.2c1.4-4.4,0.8-10-1.3-13.3c-1.7-2.6-4.4-4.6-7.9-6c-2-0.8-8.6-2.6-16-4.3c-6.4-1.5-7.7-1.9-10.2-3.2
		c-3.2-1.6-5.4-3.9-6.4-6.4c-1-2.7-1-6.7,0-9.5c1-2.6,3.2-5.1,5.9-6.7c6.3-3.7,18.7-3.9,25.4-0.5c2.2,1.2,5,4.1,6.2,6.4
		c1,2.1,1.7,4.5,1.9,6.8l0.1,1.7h0.9h0.9l-0.1-1.1c-0.7-6-2.3-9.7-5.7-12.8c-2.7-2.5-6.4-4.1-11-4.8C259.5,0,253.8,0,251.2,0.4
		L251.2,0.4z"/>
	<path fill="#FFFFFF" d="M289,33v31.6h0.8h0.8l0.1-14.5c0.1-13.7,0.1-14.6,0.5-16.4c2.1-9.2,8.5-14.3,17-13.8
		c2.6,0.2,4.4,0.6,6.4,1.6c2.2,1.1,4.3,3.2,5.3,5.3c1.6,3.3,1.5,2.2,1.6,20.9l0.1,16.8h0.9h1V49.4c0-15.7-0.1-18.4-0.9-20.9
		c-1.1-3.6-3.8-7-6.8-8.6c-3.9-2-9.7-2.5-14-1.2c-4.2,1.3-7.7,4.1-9.5,7.8c-0.6,1.1-1,2.3-1.1,2.7S291,30,290.9,30
		c-0.1,0.1-0.2-6-0.2-14.3V1.3h-0.8H289V33L289,33z"/>
	<path fill="#FFFFFF" d="M411,16.7V32l-0.6-1.7c-2-5.8-6-9.7-11.7-11.5c-1.8-0.6-2.2-0.6-5.8-0.6c-3.9,0-3.9,0-6,0.7
		c-5,1.7-9.1,5.7-11.3,11.1c-1.7,4.3-2.3,8-2.2,13.4c0.1,3.9,0.6,6.6,1.7,9.5c2.3,6.1,6.8,10.5,12.6,12.1c2.4,0.7,7.7,0.7,10.1,0
		c5.8-1.6,10.4-5.9,12.5-11.7l0.6-1.6v6.4v6.4h0.8h0.8V32.9V1.3H412h-0.8L411,16.7L411,16.7z M397.6,20.4c4.2,1.1,7.4,3.4,9.8,7.1
		c2,3,3,6.5,3.4,11.5c1,12-4.6,21.8-13.8,24.2c-2.2,0.6-6.5,0.6-8.6,0.1c-4.6-1.1-8.4-4.3-10.7-8.9c-1.9-3.8-2.6-7.3-2.6-12.4
		c0-6.2,1.2-10.9,4-15c1.7-2.6,4.9-5.2,7.5-6.2C389.7,19.7,394.2,19.6,397.6,20.4L397.6,20.4z"/>
	<path fill="#FFFFFF" d="M112.9,5.6v3h8.8c8.3,0,8.8,0,8.7-0.4c-0.1-0.2-0.5-1.5-1-2.9l-0.9-2.5h-7.8h-7.8L112.9,5.6L112.9,5.6z"/>
	<path fill="#FFFFFF" d="M161.9,5.5c-0.5,1.6-1,2.9-1,3c0,0,3.9,0.1,8.7,0.1h8.7v-3v-3h-7.7h-7.7L161.9,5.5L161.9,5.5z"/>
	<path fill="#FFFFFF" d="M-0.1,5.7v2.9h21.9h21.9L43,8c-1.9-1.6-5.7-3.4-8.9-4.2c-3.4-0.8-5.3-1-20.1-1H-0.1V5.7L-0.1,5.7z"/>
	<polygon fill="#FFFFFF" points="-0.1,15.5 -0.1,19 5.4,19 10.9,19 10.9,15.5 10.9,12 5.4,12 -0.1,12 	"/>
	<path fill="#FFFFFF" d="M26.2,12.2c5.1,0.6,9.4,2.6,12,5.6l1,1.2h5.9c4.1,0,5.9-0.1,5.9-0.2c0-0.4-2.1-4.3-3-5.6L47.2,12H35.9
		C28.3,12,25.1,12.1,26.2,12.2L26.2,12.2z"/>
	<path fill="#FFFFFF" d="M58.1,13.5c-0.8,1.4-2.7,5-2.7,5.3c0,0.1,2.6,0.1,5.8,0.1c5.5,0,5.8,0,6-0.4c0.4-1.4,2.8-4.3,4.6-5.8l1-0.8
		H66h-6.9L58.1,13.5L58.1,13.5z"/>
	<path fill="#FFFFFF" d="M94.4,12.8c1.7,1.3,3.8,3.9,4.5,5.6l0.3,0.6h5.8c3.2,0,5.8-0.1,5.8-0.1c0-0.3-2.1-4.5-2.9-5.6l-0.8-1.2
		h-6.9h-6.9L94.4,12.8L94.4,12.8z"/>
	<path fill="#FFFFFF" d="M112.9,15.5V19h5.3h5.3v-0.9v-0.9l0.4,0.9l0.4,0.9h4.9c2.7,0,4.9-0.1,4.9-0.1c0-0.1-0.5-1.7-1.2-3.5
		l-1.2-3.4h-9.4h-9.4L112.9,15.5L112.9,15.5z"/>
	<path fill="#FFFFFF" d="M158.7,15c-0.6,1.7-1.1,3.2-1.2,3.5l-0.1,0.5h4.8h4.8l0.4-1l0.4-1v1v1h5.3h5.3v-3.5V12h-9.3h-9.3L158.7,15
		L158.7,15z"/>
	<path fill="#FFFFFF" d="M183.1,13.5c-0.8,1.4-2.7,5-2.7,5.3c0,0.1,2.6,0.1,5.8,0.1c5.5,0,5.8,0,6-0.4c0.4-1.4,2.8-4.3,4.6-5.8
		l1-0.8H191h-6.9L183.1,13.5L183.1,13.5z"/>
	<path fill="#FFFFFF" d="M345.6,18.5c-7,1.5-11.4,6.4-12.3,13.2l-0.2,1.4h0.9h0.9L335,32c0.8-5.8,4.2-10,9.5-11.4
		c4.5-1.3,10.9-0.9,14.1,0.9c1.6,0.8,3.2,2.6,3.9,4.1c0.8,1.8,1.1,3.3,1.1,6.3c0,2.3,0,2.5-0.6,3.7c-0.4,0.9-0.8,1.4-1.6,1.9
		c-2,1.3-3.7,1.5-12,2.1c-10.2,0.7-12.8,1.4-15.8,4.4c-2.4,2.5-3.3,4.9-3.3,9.3c0,2.4,0.1,3.1,0.5,4.2c1.4,3.9,4.4,6.4,9.3,7.5
		c2,0.5,6.1,0.6,8.4,0.3c6.3-0.8,11.7-4.4,14.2-9.3l0.9-1.8l0.1,3.9c0.1,4.2,0.2,4.5,1.3,5.3c1,0.8,2,1,4.1,1h2v-0.8v-0.8h-1.7
		c-1.2,0-2-0.1-2.5-0.3c-1.5-0.7-1.4,0.4-1.5-18c-0.1-15.3-0.1-16.7-0.5-17.8c-1-3-3.1-5.6-5.6-7c-2.3-1.2-4.1-1.6-8.3-1.7
		C348,18.1,347.1,18.2,345.6,18.5L345.6,18.5z M363.8,44c-0.1,5.2-0.3,6.6-1.4,9.3c-1.6,3.9-4.3,6.7-8.5,8.7c-2.2,1-3.7,1.4-6.4,1.7
		c-4.9,0.5-9.6-0.7-12.3-3.2c-2.1-1.9-2.9-4.1-2.9-7.5c0-3.6,0.7-5.7,2.7-7.8c2.5-2.7,5.6-3.5,15.6-4c7.5-0.4,11.1-1.2,12.7-3
		l0.4-0.5l0.1,0.7C363.8,38.9,363.8,41.4,363.8,44L363.8,44z"/>
	<path fill="#FFFFFF" d="M437.3,18.3c-1.5,0.2-3.6,1-5.1,1.7c-5.8,2.9-9.9,8.9-11.3,16.6c-0.5,2.8-0.4,8.4,0.1,11.6
		c1.3,7.6,4.6,12.6,9.9,15.3c2.5,1.3,4.6,1.7,8.1,1.9c6.8,0.3,11.6-1.4,15.7-5.6c1.5-1.5,2.1-2.3,2.9-3.9c1-1.9,2-5.3,2-6.6
		c0-0.6-0.1-0.6-0.8-0.6H458l-0.5,2.1c-0.6,2.4-1.9,5.3-3.3,7.1c-1.9,2.4-5.1,4.4-8.5,5.3c-2.1,0.6-6.5,0.8-8.8,0.4
		c-8.1-1.3-13-7.1-14.3-16.9c-0.2-1.3-0.3-2.9-0.3-3.5v-1.1h19h19v-1.8c0-4.9-1.5-10.2-3.9-14c-1.8-2.8-5.3-5.7-8.5-6.9
		C445,18.3,440.4,17.8,437.3,18.3L437.3,18.3z M445.4,20.4c3.2,0.8,6.3,2.8,8.4,5.4c2.7,3.3,4.1,7.4,4.6,13l0.1,1.5h-18.2h-18.2
		l0.1-1.5c1-10,6.9-17.3,15.3-18.8C439.4,19.7,443.6,19.9,445.4,20.4L445.4,20.4z"/>
	<path fill="#FFFFFF" d="M478,18.3c-3.2,0.6-6.2,2-8.1,3.9c-2.1,2.1-3.1,4.5-3.1,7.4c0,5.4,2.1,8.2,7.9,10.2
		c0.9,0.3,4.8,1.4,8.7,2.4c5.7,1.4,7.3,2,8.9,2.7c2.3,1.1,4.1,2.8,5,4.6c0.5,1.1,0.6,1.4,0.6,3.7c0,2.4,0,2.6-0.7,4
		c-1.4,2.8-4.3,5-8.3,6c-1.8,0.5-2.4,0.6-5.8,0.6c-2.7,0-4.1-0.1-5.3-0.4c-7-1.6-10.5-5.6-11-12.5l-0.1-1.8h-0.9H465l0.1,1.4
		c0.5,9,5.1,13.7,14.3,14.9c5.2,0.6,9.8,0,13.7-1.8c3.5-1.7,5.8-4.5,6.5-7.9c0.8-3.8-0.1-7.4-2.5-9.7c-1.4-1.4-1.6-1.5-3.5-2.5
		c-1.7-0.8-3-1.3-11.2-3.4c-8-2.1-9.6-2.7-11.4-4.4c-2.4-2.2-3-6.4-1.4-9.9c1.1-2.3,3.9-4.5,7.2-5.4c1.4-0.4,2.2-0.4,5.5-0.4
		c3.2,0,4.1,0.1,5.5,0.5c5.4,1.5,8.6,5,9,10.2l0.1,1.8l0.9,0.1l0.9,0.1l-0.1-1.8c-0.4-5.2-2.6-8.6-6.8-10.7
		c-2.8-1.4-4.5-1.7-8.9-1.8C480.7,18.2,478.6,18.2,478,18.3L478,18.3z"/>
	<polygon fill="#FFFFFF" points="-0.1,25.9 -0.1,29.4 5.4,29.4 10.9,29.4 10.9,25.9 10.9,22.4 5.4,22.4 -0.1,22.4 	"/>
	<path fill="#FFFFFF" d="M41.1,22.7c0.4,1,1,3.5,1.2,5l0.2,1.7h10.7H64l0.4-2.3c0.2-1.3,0.5-2.8,0.8-3.5l0.4-1.2h-5.7h-5.7l-0.4,1.8
		c-0.6,2.7-0.6,2.8-1,1c-0.2-0.9-0.4-1.8-0.5-2.1l-0.2-0.6h-5.6C41.3,22.4,41,22.4,41.1,22.7L41.1,22.7z"/>
	<path fill="#FFFFFF" d="M101.1,24.1c0.3,1,0.6,2.5,0.7,3.5l0.3,1.7h10.7h10.7v-3.5v-3.5h-5.3h-5.3v2v2l-0.4-2l-0.4-2h-5.7h-5.7
		L101.1,24.1L101.1,24.1z"/>
	<path fill="#FFFFFF" d="M126.1,24.4c0.4,1.1,1,2.7,1.2,3.4l0.5,1.4h5h5l-1.2-3.4l-1.2-3.5h-5h-5L126.1,24.4L126.1,24.4z"/>
	<path fill="#FFFFFF" d="M155,25.6c-0.6,1.8-1.1,3.3-1.2,3.5s0.9,0.3,4.7,0.3h4.8l1.2-3.3c0.7-1.8,1.2-3.4,1.2-3.5s-2.1-0.1-4.7-0.1
		h-4.7L155,25.6L155,25.6z"/>
	<path fill="#FFFFFF" d="M167.8,25.9v3.5h10.7h10.7l0.4-2.3c0.2-1.3,0.5-2.8,0.8-3.5l0.4-1.2h-5.7h-5.7l-0.4,1.7
		c-0.2,1-0.4,1.8-0.4,2c0,0.1-0.1-0.7-0.1-1.7v-2h-5.3h-5.3L167.8,25.9L167.8,25.9z"/>
	<polygon fill="#FFFFFF" points="-0.1,36.1 -0.1,39.5 5.4,39.5 10.9,39.5 10.9,36.1 10.9,32.7 5.4,32.7 -0.1,32.7 	"/>
	<path fill="#FFFFFF" d="M42.7,35.5c0,1.5-0.1,3-0.1,3.4l-0.1,0.7h11h11l-0.1-0.5c-0.2-0.9-0.5-4.1-0.5-5.2v-1.1H53.3H42.7V35.5
		L42.7,35.5z"/>
	<path fill="#FFFFFF" d="M102.3,33.7c0,1.1-0.4,4.5-0.6,5.3l-0.1,0.5h10.9h10.9v-3.4v-3.4h-10.6h-10.6L102.3,33.7
		C102.2,33.7,102.3,33.7,102.3,33.7z"/>
	<path fill="#FFFFFF" d="M129.2,33c0,0.1,0.6,1.7,1.2,3.4l1.1,3.1h4.9c2.7,0,4.9-0.1,4.9-0.2c0-0.1-0.5-1.6-1.1-3.4l-1.1-3.2h-4.9
		C130.2,32.7,129.2,32.8,129.2,33L129.2,33z"/>
	<path fill="#FFFFFF" d="M151.5,36c-0.6,1.8-1.1,3.3-1.1,3.4s2.1,0.2,4.6,0.2h4.6l0.3-1c0.2-0.6,0.7-2.1,1.2-3.4l0.8-2.4h-4.7h-4.7
		L151.5,36L151.5,36z"/>
	<path fill="#FFFFFF" d="M167.8,36.1v3.4h10.9h10.9l-0.1-0.5c-0.2-0.9-0.5-4.1-0.5-5.2v-1.1h-10.6h-10.6L167.8,36.1L167.8,36.1z"/>
	<path fill="#FFFFFF" d="M227.3,33.7c0,1.1-0.4,4.5-0.6,5.3l-0.1,0.5h5.6h5.6l0.1-0.9c0.1-0.5,0.2-2,0.3-3.4l0.1-2.5h-5.6h-5.6v1
		C227.1,33.7,227.3,33.7,227.3,33.7z"/>
	<polygon fill="#FFFFFF" points="-0.1,46.6 -0.1,50.1 5.4,50.1 10.9,50.1 10.9,46.6 10.9,43.1 5.4,43.1 -0.1,43.1 	"/>
	<path fill="#FFFFFF" d="M41.7,44.2c-0.4,1.6-1,3.2-1.8,4.6c-0.4,0.7-0.7,1.3-0.7,1.3s2.7,0.1,6,0h6l0.7-2c0.4-1.1,0.8-2.7,1-3.5
		l0.3-1.4h-5.6H42L41.7,44.2L41.7,44.2z"/>
	<path fill="#FFFFFF" d="M54.1,43.2c0,0.4,1.3,3.9,1.8,5.2l0.8,1.7h6h6l-0.5-0.7c-0.7-1.1-2.2-4-2.5-5.1l-0.4-1.1h-5.7
		C56.7,43.2,54.1,43.2,54.1,43.2L54.1,43.2z"/>
	<path fill="#FFFFFF" d="M100.6,43.5c-0.8,2.2-1.8,4.3-2.7,5.6c-0.3,0.4-0.6,0.8-0.6,0.9c0,0,2.7,0.1,6,0.1h6l0.6-1.3
		c0.7-1.5,1.7-4.2,1.9-5.1l0.1-0.6h-5.6C101.2,43.1,100.8,43.2,100.6,43.5L100.6,43.5z"/>
	<polygon fill="#FFFFFF" points="112.9,46.6 112.9,50.1 118.2,50.1 123.5,50.1 123.5,46.6 123.5,43.1 118.2,43.1 112.9,43.1 	"/>
	<path fill="#FFFFFF" d="M133,43.3c0,0.1,0.5,1.7,1.2,3.5l1.2,3.3h4.9c3.8,0,4.9-0.1,4.8-0.3c0-0.1-0.6-1.7-1.2-3.5l-1.1-3.2H138
		C135.2,43.1,133,43.2,133,43.3L133,43.3z"/>
	<path fill="#FFFFFF" d="M147.8,46.6l-1.2,3.5h4.6h4.6l1.1-3.2c0.6-1.8,1.2-3.3,1.3-3.5s-0.9-0.3-4.5-0.3H149L147.8,46.6L147.8,46.6
		z"/>
	<polygon fill="#FFFFFF" points="167.8,46.6 167.8,50.1 173.1,50.1 178.4,50.1 178.4,46.6 178.4,43.1 173.1,43.1 167.8,43.1 	"/>
	<path fill="#FFFFFF" d="M179.2,43.2c0,0.4,1.3,3.9,1.8,5.2l0.8,1.7h6h6l-0.5-0.7c-0.7-1.1-2.2-4-2.5-5.1l-0.4-1.1h-5.7
		C181.7,43.2,179.2,43.2,179.2,43.2L179.2,43.2z"/>
	<path fill="#FFFFFF" d="M-0.1,59.8v6.3L15.3,66c15-0.1,15.5-0.1,17.5-0.5c5.4-1.2,9.8-3.6,13.1-7.2c1.2-1.3,3.4-4.3,3.4-4.6
		c0-0.1-3.1-0.1-6.8-0.1h-6.8l-2.1,1c-4,1.9-6.7,2.4-16.1,2.4H11v-1.7v-1.7H5.5H0v6.2C0,59.8-0.1,59.8-0.1,59.8z"/>
	<path fill="#FFFFFF" d="M58.9,53.8c0.5,0.9,2.4,3,3.9,4.5c3.9,3.7,8.7,6.2,14.3,7.2c3.2,0.6,9.3,0.6,12.3-0.1
		c4.3-0.9,8.2-2.6,11.5-5.1c1.8-1.4,4.7-4.2,5.7-5.8l0.7-1h-6.7c-6.4,0-6.8,0-7.4,0.4c-1.3,0.9-3.6,2-5.2,2.4
		c-2,0.5-7.2,0.6-9.2,0.2c-1.8-0.4-3.8-1.2-5.3-2.2l-1.3-0.8h-6.7C60.2,53.5,58.8,53.6,58.9,53.8L58.9,53.8z"/>
	<polygon fill="#FFFFFF" points="112.9,59.7 112.9,65.8 118.2,65.8 123.5,65.8 123.5,59.7 123.5,53.5 118.2,53.5 112.9,53.5 	"/>
	<path fill="#FFFFFF" d="M137.5,55.9c0.5,1.3,1.5,4.1,2.2,6.1l1.3,3.7h4.6h4.6l0.9-2.4c0.5-1.3,1.5-4.1,2.2-6.1l1.3-3.8h-9h-9
		L137.5,55.9L137.5,55.9z"/>
	<polygon fill="#FFFFFF" points="167.8,59.7 167.8,65.8 173.1,65.8 178.4,65.8 178.4,59.7 178.4,53.5 173.1,53.5 167.8,53.5 	"/>
	<path fill="#FFFFFF" d="M184,53.8c0.5,0.9,2.4,3,3.9,4.5c3.9,3.7,8.7,6.2,14.3,7.2c3.2,0.6,9.3,0.6,12.3-0.1
		c4.3-0.9,8.2-2.6,11.5-5.1c1.8-1.4,4.7-4.2,5.7-5.8l0.7-1h-6.7c-6.4,0-6.8,0-7.4,0.4c-1.3,0.9-3.6,2-5.2,2.4
		c-2,0.5-7.2,0.6-9.2,0.2c-1.8-0.4-3.8-1.2-5.3-2.2l-1.3-0.8h-6.7C185.2,53.5,183.9,53.6,184,53.8L184,53.8z"/>
</g>
</svg>
